REM DISCID 4A03DD06
REM COMMENT "ExactAudioCopy v0.99pb5"
PERFORMER "Unknown Artist"
TITLE "Unknown Title"
FILE "eo3-bonus.wav" WAVE
  TRACK 01 AUDIO
    TITLE "Track01"
    PERFORMER "Unknown Artist"
    INDEX 01 00:00:00
  TRACK 02 AUDIO
    TITLE "Track02"
    PERFORMER "Unknown Artist"
    INDEX 00 03:00:21
    INDEX 01 03:02:21
  TRACK 03 AUDIO
    TITLE "Track03"
    PERFORMER "Unknown Artist"
    INDEX 00 06:00:13
    INDEX 01 06:02:11
  TRACK 04 AUDIO
    TITLE "Track04"
    PERFORMER "Unknown Artist"
    INDEX 00 08:23:32
    INDEX 01 08:25:32
  TRACK 05 AUDIO
    TITLE "Track05"
    PERFORMER "Unknown Artist"
    INDEX 00 12:27:40
    INDEX 01 12:29:40
  TRACK 06 AUDIO
    TITLE "Track06"
    PERFORMER "Unknown Artist"
    INDEX 00 14:32:05
    INDEX 01 14:34:05
